<?xml version="1.0" standalone="no"?>
<!DOCTYPE svg PUBLIC "-//W3C//DTD SVG 20010904//EN"
 "http://www.w3.org/TR/2001/REC-SVG-20010904/DTD/svg10.dtd">
<svg version="1.0" xmlns="http://www.w3.org/2000/svg"
 width="200.000000pt" height="200.000000pt" viewBox="0 0 200.000000 200.000000"
 preserveAspectRatio="xMidYMid meet">

<g transform="translate(0.000000,200.000000) scale(0.100000,-0.100000)"
fill="#000000" stroke="none">
<path d="M875 1989 c-38 -5 -108 -21 -155 -35 -90 -27 -240 -100 -240 -116 0
-5 -5 -6 -12 -2 -8 5 -9 2 -5 -10 4 -10 3 -15 -4 -11 -5 4 -21 -1 -35 -10 -21
-13 -23 -19 -13 -31 10 -12 10 -15 -2 -12 -8 2 -16 6 -19 9 -3 4 -23 -8 -44
-27 -22 -19 -35 -34 -29 -34 6 0 22 12 37 27 20 20 29 24 38 15 9 -9 9 -12 0
-12 -7 0 -12 -5 -12 -11 0 -6 7 -8 16 -5 9 3 25 -4 40 -19 14 -14 29 -25 34
-25 6 0 10 -5 10 -11 0 -13 58 -69 71 -69 5 0 9 -6 9 -14 0 -7 12 -21 26 -31
17 -11 24 -23 21 -35 -8 -33 38 -39 303 -42 251 -3 256 -3 310 -29 30 -14 70
-38 87 -53 64 -54 81 -201 33 -283 -17 -29 -19 -38 -8 -45 10 -7 10 -8 -2 -6
-8 1 -30 -8 -49 -19 l-33 -21 31 -17 c18 -9 40 -13 51 -10 10 3 21 1 25 -4 3
-7 0 -8 -9 -5 -24 9 -19 -1 21 -41 27 -27 38 -33 44 -23 7 10 9 10 9 -2 0 -11
2 -12 8 -3 5 8 8 -2 8 -24 l0 -37 -11 28 c-9 21 -14 24 -18 13 -3 -8 1 -24 9
-36 8 -12 12 -26 9 -31 -4 -6 -3 -30 1 -53 5 -32 8 -38 14 -22 6 18 8 18 34
-8 28 -28 46 -35 46 -17 0 20 19 9 22 -12 2 -14 17 -31 40 -43 21 -11 39 -29
40 -40 2 -11 19 -29 40 -40 22 -12 38 -27 38 -38 0 -15 43 -49 75 -60 6 -2 4
-12 -5 -23 -13 -17 -13 -18 0 -8 8 6 25 11 38 12 20 1 22 -2 11 -14 -8 -10
-14 -12 -19 -4 -4 7 -13 2 -24 -14 -9 -14 -12 -26 -6 -26 5 0 10 5 10 10 0 6
5 10 11 10 6 0 2 -15 -10 -35 -29 -50 -19 -43 24 16 20 28 38 64 40 81 2 17 7
33 11 37 4 3 4 -2 1 -11 -4 -10 -3 -18 2 -18 13 0 53 89 45 101 -4 7 -3 9 4 5
18 -11 69 168 82 287 18 161 -5 320 -69 475 -120 296 -402 532 -711 596 -99
20 -247 27 -335 15z m-425 -215 c0 -12 -2 -12 -14 -2 -8 7 -12 16 -9 21 7 11
23 -2 23 -19z m230 -264 c-40 -6 -35 -7 40 -10 l85 -4 -70 -3 c-38 -2 -80 -1
-93 2 -38 9 -14 25 36 23 l47 -1 -45 -7z m634 -481 c-33 -13 -50 -9 -24 5 14
8 29 12 34 8 5 -3 1 -9 -10 -13z m6 -19 c0 -5 -4 -10 -10 -10 -5 0 -10 5 -10
10 0 6 5 10 10 10 6 0 10 -4 10 -10z m562 -437 c-12 -21 -43 -27 -35 -6 4 10
8 11 13 3 5 -8 9 -7 13 4 4 9 9 16 12 16 3 0 2 -8 -3 -17z"/>
<path d="M335 1700 c-3 -5 -1 -10 4 -10 6 0 11 5 11 10 0 6 -2 10 -4 10 -3 0
-8 -4 -11 -10z"/>
<path d="M385 1701 c-3 -5 -1 -12 5 -16 5 -3 10 1 10 9 0 18 -6 21 -15 7z"/>
<path d="M565 1509 c-11 -16 -1 -19 13 -3 7 8 8 14 3 14 -5 0 -13 -5 -16 -11z"/>
<path d="M600 1469 c0 -5 5 -7 10 -4 6 3 10 8 10 11 0 2 -4 4 -10 4 -5 0 -10
-5 -10 -11z"/>
<path d="M570 1460 c0 -5 5 -10 10 -10 6 0 10 5 10 10 0 6 -4 10 -10 10 -5 0
-10 -4 -10 -10z"/>
<path d="M900 1310 c52 -5 57 -7 25 -9 -22 -1 -49 -6 -60 -11 -16 -7 -13 -9
17 -9 37 -1 59 -15 36 -24 -7 -2 11 -16 40 -30 45 -21 51 -27 36 -35 -15 -9
-15 -11 9 -27 14 -9 31 -14 36 -10 6 3 19 1 28 -4 14 -8 15 -11 3 -11 -10 -1
-9 -4 5 -10 18 -8 18 -9 -5 -10 -16 -1 -20 -4 -10 -7 8 -3 18 -11 23 -17 5 -8
10 -7 16 3 5 7 14 10 20 7 6 -4 25 6 41 23 24 24 30 38 30 73 0 53 -33 103
-51 78 -9 -13 -10 -13 -6 1 9 29 -36 39 -171 37 -106 -1 -116 -3 -62 -8z m246
-94 c0 -14 -5 -21 -9 -17 -4 4 -5 15 -1 24 9 24 12 21 10 -7z m34 -30 c0 -3
-4 -8 -10 -11 -5 -3 -10 -1 -10 4 0 6 5 11 10 11 6 0 10 -2 10 -4z m-37 -36
c3 -11 1 -20 -4 -20 -5 0 -9 9 -9 20 0 11 2 20 4 20 2 0 6 -9 9 -20z"/>
<path d="M1100 916 c0 -2 7 -7 16 -10 8 -3 12 -2 9 4 -6 10 -25 14 -25 6z"/>
<path d="M1204 874 c9 -8 16 -22 16 -30 0 -8 4 -12 10 -9 11 7 -17 55 -32 55
-5 0 -2 -7 6 -16z"/>
<path d="M1390 650 c0 -5 5 -10 11 -10 5 0 7 5 4 10 -3 6 -8 10 -11 10 -2 0
-4 -4 -4 -10z"/>
</g>
</svg>
